<svg xmlns="http://www.w3.org/2000/svg" viewBox="0 0 100 100">
  <rect x="8" y="18" width="84" height="74" rx="13" fill="#EFE7E1"/>
  <rect x="8" y="18" width="84" height="28" rx="13" fill="#B14068"/>
  <rect x="8" y="32" width="84" height="14" fill="#B14068"/>
  <rect x="26" y="7" width="14" height="22" rx="7" fill="#B14068"/>
  <rect x="60" y="7" width="14" height="22" rx="7" fill="#B14068"/>
  <circle cx="11" cy="25" r="2.2" fill="rgba(255,255,255,0.4)"/>
  <circle cx="17" cy="25" r="2.2" fill="rgba(255,255,255,0.4)"/>
  <circle cx="23" cy="25" r="2.2" fill="rgba(255,255,255,0.4)"/>
  <circle cx="77" cy="25" r="2.2" fill="rgba(255,255,255,0.4)"/>
  <circle cx="83" cy="25" r="2.2" fill="rgba(255,255,255,0.4)"/>
  <circle cx="89" cy="25" r="2.2" fill="rgba(255,255,255,0.4)"/>
  <polygon points="50,45 26,64 74,64" fill="#B14068"/>
  <rect x="29" y="62" width="42" height="26" rx="3" fill="#B14068"/>
  <path d="M50,69 C50,67 44,65 42,68 C40,71 42,75 50,81 C58,75 60,71 58,68 C56,65 50,67 50,69 Z" fill="#FFFFFF"/>
</svg>
